<svg xmlns="http://www.w3.org/2000/svg" xmlns:xlink="http://www.w3.org/1999/xlink" preserveAspectRatio="xMidYMid" width="100%" height="224" viewBox="0 0 1414 1221"><defs>
    <style>
    .cls-2 {
        stroke: #c8c8c8;
        stroke-width: 25px;
        stroke-dasharray: 87.5,75;
        fill: none;
        animation: dashes 5s linear infinite;
    }
    
    @keyframes dashes {
            to {
            stroke-dashoffset: -325;
        }
    }
    
    @keyframes hideshowAnimatedLogo {
        0% {
            opacity: 0;
        }
        10% {
            opacity: 1;
        }
        40% {
            opacity: 1;
        }
        100% {
            opacity: 0;
        }
    }
    
    
    
    .star1,
    .star2,
    .star3,
    .star4,
    .star5,
    .star6,
    .star7 {
      animation: hideshowAnimatedLogo 7200ms linear infinite;
    }
    
    .star2 {
      animation-delay: 600ms;
    }
    
    .star3 {
      animation-delay: 1200ms;
    }
    
    .star4 {
      animation-delay: 1800ms;
    }
    
    .star5 {
      animation-delay: 2400ms;
    }
    
    .star6 {
      animation-delay: 3000ms;
    }
    
    .star7 {
      animation-delay: 3600ms;
    }
    </style>
</defs>

<g class="stars">
    <path 
        fill="#c8c8c8"
        d="M232.013,5.000 C232.852,5.000 233.691,5.000 234.531,5.000 C234.746,5.621 234.851,6.135 234.890,7.160 C234.239,8.379 235.184,11.637 235.250,13.642 C235.730,19.403 236.209,25.165 236.689,30.926 C237.957,36.499 237.648,43.203 238.847,48.570 C238.847,50.491 238.847,52.411 238.847,54.332 C242.037,67.660 241.395,83.281 244.603,96.462 C244.842,98.982 245.082,101.503 245.322,104.024 C247.680,113.215 247.733,123.161 250.358,132.471 C252.082,138.586 253.787,145.827 255.754,151.555 C257.458,156.520 257.505,161.117 259.710,165.599 C259.827,165.835 260.673,166.368 260.790,166.679 C260.910,167.639 261.029,168.600 261.149,169.560 C265.793,179.416 270.724,188.738 276.617,197.286 C278.365,199.822 281.276,201.951 283.451,204.128 C296.830,217.514 309.862,222.577 329.494,229.694 C330.573,229.814 331.653,229.934 332.732,230.054 C342.383,232.981 353.814,234.019 364.386,236.536 C365.705,236.536 367.024,236.536 368.343,236.536 C376.590,238.583 386.921,237.828 395.681,239.777 C397.479,239.777 399.278,239.777 401.077,239.777 C407.153,241.204 414.941,239.765 421.580,241.217 C425.917,242.165 431.136,240.883 435.968,241.937 C439.464,242.700 444.615,241.437 448.558,242.297 C452.148,243.080 456.946,242.887 460.429,242.657 C460.549,243.017 460.669,243.378 460.788,243.738 C461.223,244.498 460.962,244.541 460.788,245.538 C455.034,245.538 449.277,245.538 443.522,245.538 C441.449,246.785 435.605,245.898 432.731,245.898 C428.039,245.898 422.711,245.849 419.062,246.618 C415.921,247.281 412.431,245.781 408.630,246.618 C398.453,248.860 386.087,246.986 376.257,249.139 C374.218,249.139 372.180,249.139 370.142,249.139 C364.868,250.389 358.657,249.939 352.875,251.299 C341.885,253.884 330.773,254.915 320.501,258.141 C298.941,264.913 281.019,276.652 269.782,293.790 C267.411,297.407 266.243,301.116 264.027,304.952 C262.516,307.569 260.392,311.083 259.351,313.955 C255.317,325.081 252.410,336.844 249.279,348.883 C245.988,361.537 245.836,375.276 242.804,388.133 C241.940,391.795 242.924,394.500 242.085,398.215 C240.365,405.828 240.649,415.712 238.847,423.421 C238.727,426.542 238.608,429.663 238.488,432.783 C237.355,437.847 238.270,444.134 237.049,449.707 C235.386,457.299 234.436,471.541 234.890,479.235 C234.531,479.355 234.171,479.475 233.811,479.595 C232.437,480.585 231.185,479.646 230.934,478.154 C231.687,476.967 231.207,474.159 230.934,472.393 C230.253,467.987 230.935,462.276 229.855,457.629 C228.788,453.044 229.600,447.323 228.416,442.146 C224.832,426.475 226.029,407.748 222.301,392.454 C222.181,390.413 222.061,388.372 221.941,386.332 C221.177,383.112 220.606,378.930 219.783,375.890 C219.783,374.689 219.783,373.489 219.783,372.289 C214.485,351.512 212.183,330.734 203.596,313.595 C201.923,310.257 201.544,306.992 199.639,303.872 C190.712,289.257 180.252,277.315 165.466,268.584 C150.468,259.727 131.528,257.246 112.229,252.380 C110.911,252.380 109.591,252.380 108.272,252.380 C101.394,250.770 92.313,250.793 85.251,249.139 C81.415,249.019 77.577,248.899 73.740,248.779 C61.370,246.010 44.506,248.563 33.093,245.898 C22.183,245.778 11.270,245.658 0.360,245.538 C0.125,244.863 0.017,244.129 -0.000,243.017 C0.577,242.817 0.864,242.729 1.798,242.657 C2.524,243.120 5.175,243.305 6.475,243.017 C11.413,241.927 17.788,243.537 23.381,242.297 C27.424,241.401 32.305,242.551 36.690,241.577 C39.910,240.862 44.715,240.687 48.201,240.497 C50.479,240.497 52.758,240.497 55.035,240.497 C64.282,238.201 76.083,239.290 85.251,237.256 C87.049,237.256 88.848,237.256 90.647,237.256 C95.340,236.137 100.897,236.376 106.114,235.096 C111.792,233.702 118.117,233.426 124.100,231.855 C133.337,229.429 142.957,227.004 151.078,223.573 C153.380,222.600 155.357,222.579 157.553,221.412 C158.769,220.765 160.677,219.137 161.869,218.532 C163.883,217.509 165.419,217.526 167.265,216.371 C189.980,202.158 202.465,180.625 211.509,152.636 C215.788,139.395 217.011,124.847 220.502,110.865 C220.742,108.345 220.982,105.824 221.222,103.304 C224.565,89.781 223.595,73.896 226.977,60.093 C227.097,57.333 227.217,54.572 227.337,51.811 C229.514,42.145 228.391,30.808 230.574,20.844 C231.751,15.469 230.373,9.881 232.013,5.000 Z"
        class="cls-1"
    />
    <path 
        fill="#c8c8c8"
        d="M370.935,464.000 C371.460,464.000 371.984,464.000 372.508,464.000 C372.643,464.388 372.708,464.710 372.733,465.351 C372.326,466.113 372.916,468.150 372.958,469.404 C373.257,473.006 373.557,476.609 373.856,480.211 C374.648,483.695 374.456,487.887 375.205,491.243 C375.205,492.444 375.205,493.645 375.205,494.845 C377.197,503.179 376.796,512.946 378.800,521.188 C378.950,522.764 379.100,524.340 379.249,525.916 C380.722,531.663 380.756,537.882 382.395,543.703 C383.472,547.526 384.537,552.054 385.766,555.636 C386.831,558.740 386.860,561.614 388.238,564.416 C388.310,564.564 388.839,564.898 388.912,565.092 C388.987,565.692 389.062,566.293 389.136,566.893 C392.037,573.056 395.118,578.885 398.799,584.230 C399.891,585.815 401.709,587.146 403.068,588.507 C411.426,596.877 419.567,600.043 431.831,604.493 C432.505,604.568 433.179,604.643 433.853,604.718 C439.882,606.548 447.023,607.197 453.627,608.771 C454.451,608.771 455.275,608.771 456.099,608.771 C461.251,610.050 467.704,609.578 473.177,610.797 C474.300,610.797 475.424,610.797 476.547,610.797 C480.343,611.690 485.208,610.790 489.355,611.698 C492.065,612.291 495.325,611.489 498.344,612.148 C500.527,612.625 503.745,611.835 506.208,612.373 C508.450,612.863 511.448,612.742 513.624,612.598 C513.698,612.823 513.773,613.049 513.848,613.274 C514.119,613.749 513.957,613.776 513.848,614.400 C510.253,614.400 506.657,614.400 503.062,614.400 C501.767,615.179 498.116,614.625 496.321,614.625 C493.390,614.625 490.062,614.594 487.782,615.075 C485.820,615.489 483.640,614.552 481.266,615.075 C474.908,616.477 467.183,615.305 461.042,616.651 C459.769,616.651 458.496,616.651 457.222,616.651 C453.928,617.433 450.048,617.152 446.436,618.002 C439.571,619.618 432.629,620.263 426.213,622.280 C412.744,626.514 401.548,633.854 394.529,644.570 C393.048,646.831 392.318,649.150 390.934,651.549 C389.990,653.185 388.663,655.382 388.013,657.178 C385.493,664.135 383.677,671.490 381.721,679.017 C379.665,686.930 379.570,695.520 377.676,703.559 C377.137,705.849 377.751,707.540 377.227,709.863 C376.153,714.623 376.330,720.803 375.205,725.623 C375.130,727.574 375.055,729.526 374.980,731.477 C374.272,734.643 374.844,738.574 374.081,742.059 C373.042,746.806 372.449,755.711 372.733,760.521 C372.508,760.596 372.283,760.672 372.059,760.747 C371.200,761.366 370.418,760.779 370.261,759.846 C370.732,759.104 370.432,757.348 370.261,756.244 C369.836,753.489 370.262,749.918 369.587,747.012 C368.921,744.146 369.428,740.568 368.688,737.331 C366.450,727.533 367.197,715.823 364.868,706.260 C364.793,704.985 364.718,703.709 364.643,702.433 C364.166,700.419 363.810,697.805 363.295,695.904 C363.295,695.153 363.295,694.403 363.295,693.652 C359.986,680.661 358.548,667.669 353.183,656.953 C352.139,654.866 351.902,652.824 350.712,650.874 C345.135,641.735 338.601,634.269 329.365,628.809 C319.995,623.271 308.163,621.720 296.108,618.677 C295.284,618.677 294.460,618.677 293.636,618.677 C289.339,617.671 283.667,617.686 279.255,616.651 C276.859,616.576 274.461,616.501 272.065,616.426 C264.337,614.694 253.802,616.291 246.673,614.625 C239.857,614.550 233.040,614.475 226.225,614.400 C226.078,613.977 226.011,613.519 226.000,612.823 C226.360,612.698 226.540,612.643 227.123,612.598 C227.577,612.888 229.232,613.003 230.045,612.823 C233.130,612.141 237.112,613.148 240.606,612.373 C243.131,611.813 246.181,612.532 248.920,611.923 C250.931,611.476 253.933,611.367 256.110,611.247 C257.533,611.247 258.957,611.247 260.380,611.247 C266.156,609.812 273.528,610.493 279.255,609.221 C280.379,609.221 281.502,609.221 282.626,609.221 C285.557,608.521 289.029,608.671 292.288,607.870 C295.835,606.999 299.786,606.826 303.523,605.844 C309.293,604.327 315.303,602.811 320.376,600.665 C321.814,600.057 323.050,600.044 324.421,599.315 C325.181,598.910 326.372,597.892 327.118,597.513 C328.376,596.874 329.335,596.885 330.488,596.162 C344.678,587.276 352.477,573.812 358.127,556.311 C360.800,548.032 361.564,538.936 363.745,530.194 C363.894,528.618 364.044,527.041 364.194,525.466 C366.283,517.011 365.677,507.078 367.789,498.448 C367.864,496.722 367.939,494.995 368.014,493.269 C369.374,487.225 368.673,480.137 370.036,473.906 C370.772,470.546 369.911,467.052 370.935,464.000 Z"
        class="star2"
    />
    <path
        fill="#c8c8c8"
        d="M634.948,232.000 C635.480,232.000 636.011,232.000 636.543,232.000 C636.680,232.393 636.746,232.719 636.771,233.369 C636.358,234.141 636.957,236.206 636.999,237.476 C637.302,241.127 637.606,244.778 637.910,248.429 C638.713,251.960 638.517,256.209 639.277,259.610 C639.277,260.827 639.277,262.044 639.277,263.261 C641.297,271.707 640.891,281.605 642.922,289.958 C643.074,291.555 643.226,293.153 643.378,294.750 C644.871,300.574 644.905,306.877 646.567,312.776 C647.660,316.651 648.739,321.240 649.985,324.870 C651.064,328.016 651.094,330.929 652.491,333.769 C652.565,333.919 653.101,334.257 653.174,334.453 C653.250,335.062 653.326,335.670 653.402,336.279 C656.344,342.525 659.466,348.432 663.199,353.849 C664.306,355.456 666.150,356.805 667.528,358.184 C676.001,366.667 684.255,369.875 696.689,374.385 C697.373,374.461 698.056,374.537 698.740,374.613 C704.853,376.468 712.093,377.126 718.789,378.721 C719.624,378.721 720.459,378.721 721.295,378.721 C726.518,380.018 733.061,379.539 738.609,380.774 C739.748,380.774 740.888,380.774 742.027,380.774 C745.875,381.679 750.808,380.767 755.013,381.687 C757.760,382.288 761.065,381.475 764.126,382.143 C766.340,382.627 769.603,381.827 772.100,382.371 C774.373,382.868 777.412,382.745 779.618,382.600 C779.694,382.828 779.770,383.056 779.846,383.284 C780.121,383.766 779.956,383.793 779.846,384.425 C776.201,384.425 772.555,384.425 768.910,384.425 C767.598,385.215 763.896,384.653 762.076,384.653 C759.104,384.653 755.729,384.622 753.418,385.110 C751.428,385.529 749.219,384.579 746.811,385.110 C740.365,386.530 732.533,385.343 726.307,386.707 C725.016,386.707 723.725,386.707 722.434,386.707 C719.094,387.499 715.160,387.214 711.498,388.076 C704.537,389.714 697.499,390.367 690.994,392.412 C677.338,396.703 665.987,404.142 658.870,415.001 C657.368,417.294 656.628,419.644 655.225,422.075 C654.268,423.733 652.922,425.960 652.263,427.780 C649.708,434.831 647.867,442.284 645.884,449.913 C643.799,457.932 643.703,466.638 641.783,474.785 C641.236,477.106 641.859,478.820 641.327,481.174 C640.238,485.999 640.418,492.262 639.277,497.147 C639.201,499.124 639.125,501.102 639.049,503.080 C638.332,506.288 638.911,510.272 638.138,513.804 C637.084,518.615 636.483,527.639 636.771,532.515 C636.543,532.591 636.315,532.667 636.087,532.743 C635.217,533.371 634.424,532.776 634.265,531.830 C634.742,531.078 634.438,529.299 634.265,528.180 C633.833,525.387 634.266,521.768 633.581,518.824 C632.906,515.919 633.420,512.293 632.670,509.012 C630.400,499.082 631.158,487.215 628.797,477.523 C628.721,476.230 628.645,474.937 628.569,473.644 C628.085,471.603 627.724,468.954 627.202,467.027 C627.202,466.266 627.202,465.506 627.202,464.745 C623.846,451.579 622.389,438.412 616.950,427.551 C615.891,425.436 615.651,423.367 614.444,421.391 C608.790,412.129 602.165,404.562 592.800,399.029 C583.301,393.416 571.305,391.845 559.082,388.761 C558.247,388.761 557.411,388.761 556.576,388.761 C552.219,387.741 546.468,387.755 541.995,386.707 C539.565,386.631 537.134,386.555 534.704,386.479 C526.869,384.724 516.188,386.342 508.960,384.653 C502.050,384.577 495.138,384.501 488.228,384.425 C488.079,383.997 488.011,383.532 488.000,382.828 C488.365,382.701 488.548,382.645 489.139,382.600 C489.599,382.893 491.277,383.010 492.101,382.828 C495.229,382.137 499.266,383.157 502.809,382.371 C505.369,381.804 508.461,382.532 511.238,381.915 C513.277,381.462 516.321,381.351 518.529,381.231 C519.971,381.231 521.415,381.231 522.857,381.231 C528.714,379.776 536.188,380.466 541.995,379.177 C543.134,379.177 544.273,379.177 545.412,379.177 C548.384,378.468 551.905,378.619 555.209,377.808 C558.805,376.925 562.811,376.750 566.600,375.754 C572.450,374.217 578.544,372.680 583.687,370.506 C585.145,369.890 586.397,369.877 587.788,369.137 C588.559,368.727 589.767,367.695 590.522,367.312 C591.798,366.664 592.770,366.674 593.939,365.942 C608.327,356.936 616.234,343.290 621.962,325.554 C624.672,317.164 625.446,307.945 627.658,299.085 C627.810,297.488 627.961,295.891 628.113,294.293 C630.231,285.725 629.617,275.658 631.759,266.912 C631.835,265.162 631.911,263.413 631.986,261.663 C633.365,255.538 632.654,248.354 634.037,242.040 C634.783,238.634 633.910,235.093 634.948,232.000 Z"
        class="star3"
    />
    <path 
        fill="#c8c8c8"
        d="M802.701,319.000 C803.095,319.000 803.488,319.000 803.881,319.000 C803.982,319.291 804.031,319.533 804.050,320.014 C803.744,320.586 804.187,322.116 804.218,323.057 C804.443,325.761 804.668,328.466 804.892,331.170 C805.486,333.786 805.342,336.934 805.903,339.453 C805.903,340.354 805.903,341.256 805.903,342.158 C807.398,348.414 807.097,355.747 808.600,361.935 C808.712,363.118 808.825,364.301 808.937,365.484 C810.042,369.799 810.067,374.468 811.296,378.838 C812.104,381.709 812.903,385.108 813.824,387.797 C814.623,390.127 814.645,392.285 815.678,394.389 C815.733,394.500 816.129,394.750 816.184,394.896 C816.240,395.347 816.296,395.798 816.352,396.248 C818.528,400.875 820.838,405.251 823.599,409.264 C824.418,410.454 825.782,411.454 826.801,412.476 C833.069,418.759 839.175,421.136 848.373,424.477 C848.878,424.533 849.384,424.590 849.890,424.646 C854.412,426.020 859.767,426.507 864.720,427.689 C865.338,427.689 865.956,427.689 866.574,427.689 C870.438,428.649 875.278,428.295 879.382,429.210 C880.225,429.210 881.068,429.210 881.910,429.210 C884.757,429.880 888.406,429.205 891.516,429.886 C893.549,430.331 895.993,429.729 898.258,430.224 C899.895,430.582 902.309,429.990 904.156,430.393 C905.838,430.761 908.086,430.670 909.718,430.562 C909.774,430.731 909.830,430.900 909.886,431.069 C910.090,431.426 909.968,431.447 909.886,431.915 C907.190,431.915 904.493,431.915 901.797,431.915 C900.825,432.500 898.087,432.084 896.741,432.084 C894.543,432.083 892.047,432.061 890.337,432.422 C888.865,432.732 887.230,432.029 885.449,432.422 C880.681,433.474 874.887,432.594 870.282,433.605 C869.327,433.605 868.372,433.605 867.417,433.605 C864.946,434.192 862.036,433.981 859.327,434.619 C854.178,435.833 848.972,436.316 844.160,437.831 C834.058,441.010 825.661,446.520 820.397,454.565 C819.286,456.263 818.739,458.004 817.701,459.805 C816.993,461.033 815.997,462.683 815.510,464.031 C813.620,469.254 812.258,474.776 810.791,480.427 C809.249,486.367 809.178,492.817 807.757,498.852 C807.353,500.571 807.813,501.841 807.420,503.585 C806.615,507.159 806.748,511.798 805.903,515.417 C805.847,516.882 805.791,518.347 805.735,519.812 C805.204,522.189 805.633,525.140 805.061,527.757 C804.282,531.321 803.837,538.006 804.050,541.618 C803.881,541.674 803.713,541.730 803.544,541.787 C802.900,542.252 802.314,541.811 802.196,541.110 C802.549,540.553 802.324,539.235 802.196,538.406 C801.877,536.338 802.196,533.657 801.690,531.476 C801.191,529.323 801.571,526.637 801.016,524.207 C799.337,516.851 799.898,508.060 798.151,500.880 C798.095,499.923 798.039,498.965 797.983,498.007 C797.625,496.495 797.357,494.532 796.971,493.105 C796.971,492.541 796.971,491.978 796.971,491.414 C794.489,481.661 793.411,471.907 789.388,463.862 C788.604,462.295 788.426,460.762 787.534,459.298 C783.352,452.437 778.451,446.831 771.523,442.733 C764.496,438.575 755.623,437.411 746.581,435.126 C745.963,435.126 745.345,435.126 744.727,435.126 C741.505,434.371 737.250,434.382 733.941,433.605 C732.144,433.549 730.346,433.492 728.548,433.436 C722.753,432.136 714.852,433.335 709.505,432.084 C704.393,432.027 699.280,431.971 694.168,431.915 C694.059,431.598 694.008,431.253 694.000,430.731 C694.270,430.637 694.405,430.596 694.843,430.562 C695.183,430.779 696.424,430.866 697.033,430.731 C699.347,430.219 702.334,430.975 704.954,430.393 C706.848,429.973 709.136,430.512 711.190,430.055 C712.698,429.719 714.950,429.638 716.583,429.548 C717.650,429.548 718.718,429.548 719.785,429.548 C724.117,428.470 729.646,428.982 733.941,428.027 C734.784,428.027 735.627,428.027 736.469,428.027 C738.668,427.501 741.272,427.613 743.716,427.013 C746.376,426.359 749.339,426.229 752.143,425.491 C756.470,424.353 760.977,423.214 764.782,421.603 C765.861,421.147 766.787,421.137 767.816,420.589 C768.386,420.286 769.279,419.521 769.838,419.237 C770.782,418.757 771.501,418.765 772.366,418.223 C783.009,411.551 788.858,401.442 793.095,388.304 C795.100,382.088 795.673,375.259 797.308,368.696 C797.421,367.513 797.533,366.329 797.646,365.146 C799.212,358.798 798.758,351.341 800.342,344.862 C800.398,343.566 800.454,342.270 800.510,340.974 C801.531,336.437 801.005,331.115 802.027,326.437 C802.579,323.914 801.933,321.291 802.701,319.000 Z" 
        class="star4"
    />
    <path 
        fill="#c8c8c8"
        d="M1025.477,0.000 C1026.025,0.000 1026.573,0.000 1027.121,0.000 C1027.262,0.405 1027.330,0.741 1027.356,1.410 C1026.931,2.205 1027.548,4.332 1027.591,5.640 C1027.904,9.400 1028.217,13.161 1028.530,16.921 C1029.358,20.558 1029.157,24.934 1029.940,28.436 C1029.940,29.690 1029.940,30.943 1029.940,32.197 C1032.022,40.896 1031.603,51.090 1033.697,59.693 C1033.854,61.338 1034.010,62.983 1034.167,64.628 C1035.706,70.627 1035.741,77.119 1037.455,83.194 C1038.581,87.186 1039.694,91.912 1040.977,95.650 C1042.090,98.890 1042.121,101.890 1043.561,104.816 C1043.637,104.970 1044.189,105.318 1044.265,105.520 C1044.344,106.147 1044.422,106.774 1044.500,107.401 C1047.532,113.833 1050.751,119.918 1054.599,125.497 C1055.740,127.152 1057.641,128.541 1059.061,129.962 C1067.796,138.698 1076.304,142.003 1089.121,146.648 C1089.826,146.726 1090.531,146.805 1091.235,146.883 C1097.537,148.793 1104.999,149.470 1111.902,151.113 C1112.763,151.113 1113.624,151.113 1114.485,151.113 C1119.870,152.449 1126.615,151.956 1132.334,153.228 C1133.508,153.228 1134.682,153.228 1135.857,153.228 C1139.824,154.160 1144.909,153.221 1149.243,154.168 C1152.074,154.787 1155.482,153.950 1158.637,154.638 C1160.919,155.136 1164.282,154.312 1166.857,154.873 C1169.200,155.384 1172.332,155.258 1174.607,155.108 C1174.685,155.343 1174.763,155.578 1174.841,155.813 C1175.125,156.309 1174.955,156.338 1174.841,156.988 C1171.084,156.988 1167.326,156.988 1163.569,156.988 C1162.215,157.802 1158.399,157.224 1156.523,157.223 C1153.460,157.223 1149.981,157.191 1147.599,157.693 C1145.548,158.126 1143.270,157.147 1140.788,157.693 C1134.144,159.156 1126.070,157.933 1119.652,159.339 C1118.321,159.339 1116.990,159.339 1115.659,159.339 C1112.217,160.155 1108.162,159.861 1104.387,160.749 C1097.211,162.436 1089.956,163.108 1083.250,165.214 C1069.174,169.634 1057.473,177.295 1050.137,188.480 C1048.588,190.841 1047.826,193.262 1046.379,195.766 C1045.392,197.473 1044.006,199.766 1043.326,201.641 C1040.692,208.903 1038.795,216.580 1036.750,224.437 C1034.601,232.696 1034.502,241.662 1032.523,250.054 C1031.959,252.444 1032.601,254.209 1032.053,256.634 C1030.931,261.603 1031.116,268.053 1029.940,273.085 C1029.861,275.121 1029.783,277.158 1029.705,279.195 C1028.965,282.500 1029.563,286.603 1028.765,290.241 C1027.679,295.195 1027.060,304.490 1027.356,309.512 C1027.121,309.590 1026.887,309.668 1026.652,309.747 C1025.754,310.393 1024.937,309.780 1024.773,308.807 C1025.265,308.032 1024.951,306.199 1024.773,305.046 C1024.328,302.171 1024.774,298.443 1024.068,295.411 C1023.372,292.418 1023.902,288.684 1023.129,285.305 C1020.789,275.078 1021.571,262.856 1019.137,252.874 C1019.058,251.542 1018.980,250.210 1018.902,248.878 C1018.403,246.777 1018.030,244.047 1017.493,242.063 C1017.493,241.280 1017.493,240.496 1017.493,239.713 C1014.034,226.153 1012.531,212.592 1006.924,201.406 C1005.832,199.227 1005.585,197.096 1004.341,195.061 C998.513,185.522 991.684,177.728 982.030,172.029 C972.238,166.249 959.872,164.630 947.273,161.454 C946.412,161.454 945.550,161.454 944.689,161.454 C940.199,160.403 934.270,160.418 929.659,159.339 C927.154,159.260 924.649,159.182 922.144,159.104 C914.068,157.296 903.057,158.963 895.606,157.223 C888.483,157.145 881.358,157.067 874.235,156.988 C874.082,156.548 874.011,156.069 874.000,155.343 C874.376,155.212 874.564,155.155 875.174,155.108 C875.648,155.410 877.378,155.531 878.227,155.343 C881.451,154.631 885.613,155.682 889.265,154.873 C891.905,154.289 895.092,155.039 897.954,154.403 C900.057,153.936 903.194,153.823 905.470,153.698 C906.957,153.698 908.445,153.698 909.932,153.698 C915.969,152.200 923.673,152.911 929.659,151.583 C930.833,151.583 932.008,151.583 933.182,151.583 C936.246,150.853 939.874,151.009 943.280,150.173 C946.987,149.264 951.116,149.083 955.023,148.058 C961.053,146.475 967.335,144.892 972.636,142.653 C974.139,142.018 975.430,142.004 976.864,141.243 C977.658,140.820 978.903,139.757 979.682,139.363 C980.997,138.695 982.000,138.706 983.204,137.952 C998.035,128.676 1006.186,114.622 1012.091,96.355 C1014.885,87.714 1015.683,78.219 1017.962,69.094 C1018.119,67.449 1018.275,65.803 1018.432,64.158 C1020.615,55.333 1019.982,44.965 1022.190,35.957 C1022.268,34.155 1022.346,32.353 1022.424,30.552 C1023.846,24.243 1023.113,16.844 1024.538,10.340 C1025.307,6.833 1024.407,3.186 1025.477,0.000 Z"
        class="star5"
    />
    <path 
        fill="#c8c8c8"
        d="M1161.155,437.000 C1162.082,437.000 1163.009,437.000 1163.936,437.000 C1164.173,437.684 1164.289,438.250 1164.333,439.379 C1163.613,440.720 1164.657,444.307 1164.730,446.515 C1165.259,452.857 1165.789,459.202 1166.318,465.544 C1167.718,471.680 1167.377,479.062 1168.701,484.971 C1168.701,487.085 1168.701,489.200 1168.701,491.314 C1172.223,505.988 1171.514,523.186 1175.055,537.699 C1175.320,540.474 1175.585,543.249 1175.850,546.024 C1178.453,556.144 1178.512,567.095 1181.410,577.344 C1183.313,584.077 1185.196,592.049 1187.367,598.356 C1189.248,603.822 1189.301,608.883 1191.735,613.818 C1191.864,614.078 1192.798,614.665 1192.927,615.007 C1193.059,616.064 1193.191,617.122 1193.324,618.179 C1198.451,629.030 1203.895,639.294 1210.401,648.706 C1212.331,651.497 1215.545,653.842 1217.947,656.238 C1232.718,670.976 1247.106,676.551 1268.781,684.386 C1269.972,684.518 1271.164,684.651 1272.355,684.783 C1283.011,688.005 1295.631,689.148 1307.303,691.919 C1308.759,691.919 1310.216,691.919 1311.672,691.919 C1320.777,694.172 1332.183,693.341 1341.854,695.487 C1343.840,695.487 1345.826,695.487 1347.812,695.487 C1354.520,697.059 1363.119,695.474 1370.449,697.073 C1375.237,698.117 1380.999,696.705 1386.334,697.866 C1390.193,698.705 1395.881,697.315 1400.234,698.262 C1404.197,699.124 1409.494,698.911 1413.340,698.659 C1413.472,699.055 1413.604,699.451 1413.737,699.848 C1414.216,700.685 1413.929,700.733 1413.737,701.830 C1407.383,701.830 1401.028,701.830 1394.674,701.830 C1392.385,703.203 1385.933,702.227 1382.760,702.227 C1377.580,702.226 1371.697,702.173 1367.669,703.019 C1364.200,703.749 1360.348,702.098 1356.151,703.019 C1344.915,705.488 1331.262,703.424 1320.409,705.795 C1318.159,705.795 1315.908,705.795 1313.657,705.795 C1307.835,707.171 1300.979,706.676 1294.595,708.173 C1282.461,711.019 1270.192,712.154 1258.852,715.706 C1235.048,723.162 1215.261,736.086 1202.855,754.955 C1200.237,758.937 1198.947,763.021 1196.501,767.245 C1194.833,770.125 1192.488,773.994 1191.338,777.156 C1186.885,789.406 1183.675,802.357 1180.218,815.612 C1176.584,829.544 1176.417,844.670 1173.070,858.825 C1172.116,862.858 1173.202,865.836 1172.275,869.926 C1170.377,878.308 1170.691,889.190 1168.701,897.678 C1168.569,901.113 1168.436,904.550 1168.304,907.985 C1167.053,913.561 1168.064,920.482 1166.715,926.619 C1164.879,934.977 1163.831,950.657 1164.333,959.128 C1163.936,959.260 1163.538,959.392 1163.141,959.524 C1161.624,960.615 1160.242,959.581 1159.964,957.938 C1160.796,956.631 1160.265,953.540 1159.964,951.595 C1159.212,946.744 1159.966,940.456 1158.773,935.341 C1157.595,930.292 1158.491,923.993 1157.184,918.293 C1153.228,901.040 1154.549,880.422 1150.433,863.583 C1150.300,861.336 1150.168,859.089 1150.036,856.843 C1149.192,853.297 1148.562,848.693 1147.653,845.346 C1147.653,844.025 1147.653,842.703 1147.653,841.381 C1141.803,818.506 1139.262,795.630 1129.781,776.760 C1127.935,773.085 1127.516,769.490 1125.413,766.055 C1115.557,749.964 1104.009,736.816 1087.684,727.203 C1071.125,717.452 1050.214,714.721 1028.908,709.363 C1027.452,709.363 1025.995,709.363 1024.539,709.363 C1016.945,707.591 1006.919,707.616 999.122,705.795 C994.886,705.663 990.649,705.530 986.414,705.398 C972.756,702.349 954.137,705.160 941.537,702.227 C929.491,702.094 917.442,701.962 905.397,701.830 C905.138,701.087 905.019,700.279 905.000,699.055 C905.637,698.834 905.954,698.738 906.986,698.659 C907.787,699.168 910.713,699.371 912.148,699.055 C917.601,697.854 924.638,699.627 930.814,698.262 C935.277,697.276 940.667,698.542 945.508,697.469 C949.063,696.682 954.368,696.490 958.217,696.280 C960.732,696.280 963.247,696.280 965.762,696.280 C975.971,693.752 989.000,694.951 999.122,692.712 C1001.108,692.712 1003.094,692.712 1005.079,692.712 C1010.260,691.479 1016.397,691.743 1022.156,690.333 C1028.425,688.799 1035.408,688.495 1042.013,686.765 C1052.211,684.094 1062.833,681.424 1071.799,677.646 C1074.341,676.576 1076.523,676.553 1078.947,675.268 C1080.291,674.556 1082.396,672.763 1083.713,672.096 C1085.937,670.971 1087.632,670.989 1089.670,669.717 C1114.749,654.069 1128.533,630.361 1138.518,599.545 C1143.242,584.968 1144.592,568.951 1148.447,553.557 C1148.712,550.782 1148.977,548.006 1149.241,545.231 C1152.933,530.344 1151.862,512.853 1155.595,497.657 C1155.728,494.618 1155.860,491.578 1155.993,488.539 C1158.397,477.896 1157.157,465.414 1159.567,454.444 C1160.867,448.527 1159.345,442.374 1161.155,437.000 Z" 
    /><path
        fill="#c8c8c8"
        d="M663.948,637.000 C664.480,637.000 665.011,637.000 665.543,637.000 C665.679,637.393 665.746,637.719 665.771,638.369 C665.358,639.141 665.957,641.206 665.999,642.476 C666.302,646.127 666.606,649.778 666.910,653.429 C667.713,656.960 667.517,661.209 668.277,664.610 C668.277,665.827 668.277,667.044 668.277,668.261 C670.297,676.707 669.890,686.605 671.922,694.958 C672.074,696.555 672.226,698.153 672.378,699.750 C673.871,705.574 673.905,711.877 675.567,717.776 C676.660,721.651 677.739,726.240 678.985,729.870 C680.064,733.016 680.094,735.929 681.491,738.769 C681.565,738.919 682.101,739.257 682.174,739.453 C682.250,740.062 682.326,740.670 682.402,741.279 C685.343,747.525 688.466,753.432 692.199,758.849 C693.306,760.456 695.150,761.805 696.527,763.184 C705.001,771.667 713.255,774.875 725.689,779.385 C726.373,779.461 727.056,779.537 727.740,779.613 C733.853,781.468 741.092,782.126 747.789,783.721 C748.624,783.721 749.459,783.721 750.295,783.721 C755.518,785.017 762.062,784.539 767.609,785.774 C768.749,785.774 769.888,785.774 771.027,785.774 C774.875,786.679 779.808,785.767 784.013,786.687 C786.760,787.288 790.065,786.475 793.126,787.143 C795.340,787.626 798.603,786.827 801.100,787.371 C803.373,787.868 806.412,787.745 808.618,787.600 C808.694,787.828 808.770,788.056 808.846,788.284 C809.121,788.766 808.956,788.793 808.846,789.425 C805.201,789.425 801.555,789.425 797.910,789.425 C796.597,790.215 792.896,789.653 791.076,789.653 C788.104,789.653 784.730,789.622 782.418,790.110 C780.429,790.529 778.219,789.579 775.811,790.110 C769.365,791.530 761.533,790.343 755.307,791.707 C754.016,791.707 752.725,791.707 751.434,791.707 C748.094,792.499 744.160,792.214 740.498,793.076 C733.537,794.714 726.499,795.367 719.994,797.411 C706.338,801.703 694.987,809.141 687.870,820.001 C686.368,822.294 685.628,824.644 684.225,827.075 C683.268,828.733 681.923,830.960 681.263,832.780 C678.708,839.830 676.867,847.284 674.884,854.913 C672.799,862.932 672.703,871.638 670.783,879.785 C670.236,882.106 670.859,883.820 670.327,886.174 C669.238,890.999 669.418,897.262 668.277,902.147 C668.201,904.124 668.125,906.102 668.049,908.080 C667.331,911.288 667.911,915.272 667.138,918.804 C666.084,923.615 665.483,932.639 665.771,937.515 C665.543,937.591 665.315,937.667 665.087,937.743 C664.217,938.371 663.424,937.776 663.265,936.830 C663.742,936.078 663.438,934.299 663.265,933.180 C662.833,930.387 663.266,926.768 662.581,923.824 C661.906,920.918 662.420,917.293 661.670,914.012 C659.400,904.082 660.158,892.215 657.797,882.523 C657.721,881.230 657.645,879.937 657.569,878.644 C657.085,876.603 656.724,873.954 656.202,872.027 C656.202,871.266 656.202,870.506 656.202,869.745 C652.847,856.579 651.389,843.412 645.950,832.551 C644.891,830.436 644.651,828.367 643.444,826.391 C637.790,817.129 631.165,809.562 621.800,804.029 C612.301,798.416 600.305,796.845 588.082,793.761 C587.247,793.761 586.411,793.761 585.576,793.761 C581.219,792.741 575.468,792.755 570.995,791.707 C568.565,791.631 566.134,791.555 563.704,791.479 C555.870,789.724 545.188,791.342 537.960,789.653 C531.050,789.577 524.138,789.501 517.228,789.425 C517.079,788.997 517.011,788.532 517.000,787.828 C517.365,787.701 517.548,787.645 518.139,787.600 C518.599,787.893 520.277,788.010 521.101,787.828 C524.229,787.137 528.266,788.157 531.809,787.371 C534.369,786.804 537.461,787.532 540.238,786.915 C542.277,786.462 545.321,786.351 547.529,786.231 C548.971,786.231 550.415,786.231 551.857,786.231 C557.714,784.776 565.188,785.466 570.995,784.177 C572.134,784.177 573.273,784.177 574.412,784.177 C577.384,783.468 580.905,783.619 584.209,782.808 C587.805,781.925 591.811,781.750 595.600,780.754 C601.450,779.217 607.544,777.680 612.687,775.506 C614.145,774.890 615.397,774.876 616.788,774.137 C617.559,773.727 618.767,772.695 619.522,772.312 C620.798,771.664 621.770,771.674 622.939,770.942 C637.327,761.936 645.234,748.290 650.962,730.554 C653.672,722.164 654.446,712.945 656.658,704.085 C656.810,702.488 656.962,700.891 657.113,699.293 C659.231,690.725 658.617,680.658 660.759,671.912 C660.835,670.162 660.911,668.413 660.986,666.663 C662.366,660.538 661.654,653.354 663.037,647.040 C663.783,643.634 662.910,640.093 663.948,637.000 Z"
    /></g>

<g class="dashes">
    <path 
        fill="#c8c8c8"
        d="M178.000,316.000 C-92.565,518.025 150.110,812.057 343.021,622.936 C545.391,424.543 726.721,283.627 926.000,182.000 C1237.752,23.015 1647.659,112.691 1204.000,674.000 " 
        class="cls-2"
    />
</g><g>
        <path 
            fill="#c8c8c8"
            d="M1072.418,864.479 C1071.026,862.746 1068.682,859.971 1065.386,856.146 C1062.082,852.329 1056.964,850.417 1050.022,850.417 L1014.605,850.417 C1010.780,850.417 1007.484,851.808 1004.709,854.583 C1001.926,857.367 1000.543,860.662 1000.543,864.479 L1000.543,1200.937 C1000.543,1204.762 1001.926,1208.058 1004.709,1210.833 C1007.484,1213.617 1010.780,1215.000 1014.605,1215.000 L1056.793,1215.000 C1060.609,1215.000 1063.905,1213.617 1066.688,1210.833 C1069.464,1208.058 1070.855,1204.762 1070.855,1200.937 L1070.855,997.292 L1138.563,1114.479 C1140.297,1117.262 1142.730,1120.127 1145.855,1123.073 C1148.980,1126.027 1152.968,1127.500 1157.834,1127.500 L1184.918,1127.500 C1189.776,1127.500 1193.772,1126.027 1196.897,1123.073 C1200.022,1120.127 1202.447,1117.262 1204.189,1114.479 L1271.897,997.292 L1271.897,1200.937 C1271.897,1204.762 1273.280,1208.058 1276.063,1210.833 C1278.839,1213.617 1282.135,1215.000 1285.959,1215.000 L1328.147,1215.000 C1331.964,1215.000 1335.259,1213.617 1338.043,1210.833 C1340.818,1208.058 1342.209,1204.762 1342.209,1200.937 L1342.209,864.479 C1342.209,860.662 1340.818,857.367 1338.043,854.583 C1335.259,851.808 1331.964,850.417 1328.147,850.417 L1292.730,850.417 C1285.780,850.417 1280.662,852.329 1277.366,856.146 C1274.062,859.971 1271.718,862.746 1270.334,864.479 L1171.376,1036.354 L1072.418,864.479 Z"  
        />
        <path 
            fill="#c8c8c8"
            d="M764.824,853.281 C747.979,858.669 733.485,866.042 721.335,875.417 C709.177,884.792 699.631,896.079 692.689,909.271 C685.739,922.471 682.272,936.875 682.272,952.500 C682.272,968.125 684.356,981.585 688.522,992.865 C692.689,1004.152 699.020,1013.958 707.533,1022.292 C716.037,1030.625 726.803,1037.656 739.824,1043.385 C752.845,1049.115 768.031,1054.062 785.397,1058.229 C804.489,1063.096 821.335,1067.083 835.918,1070.208 C850.501,1073.333 862.741,1076.637 872.637,1080.104 C882.533,1083.579 889.906,1087.746 894.772,1092.604 C899.631,1097.471 902.064,1103.721 902.064,1111.354 C902.064,1119.346 899.802,1126.027 895.293,1131.406 C890.777,1136.794 884.876,1141.302 877.585,1144.948 C870.293,1148.594 861.781,1151.198 852.064,1152.760 C842.339,1154.323 832.272,1155.104 821.856,1155.104 C808.656,1155.104 797.637,1153.981 788.783,1151.719 C779.928,1149.464 772.547,1146.600 766.647,1143.125 C760.739,1139.658 756.052,1135.662 752.585,1131.146 C749.110,1126.637 746.156,1122.121 743.731,1117.604 C741.647,1113.437 739.043,1110.312 735.918,1108.229 C732.793,1106.146 728.276,1105.104 722.376,1105.104 L685.918,1105.104 C682.093,1105.104 678.708,1106.406 675.762,1109.010 C672.808,1111.615 671.506,1115.000 671.856,1119.167 C672.897,1134.450 677.585,1148.333 685.918,1160.833 C694.251,1173.333 705.270,1184.010 718.991,1192.865 C732.704,1201.719 748.418,1208.490 766.126,1213.177 C783.835,1217.865 802.406,1220.208 821.856,1220.208 C845.114,1220.208 866.126,1217.425 884.876,1211.875 C903.626,1206.325 919.422,1198.773 932.272,1189.219 C945.114,1179.673 955.010,1168.214 961.960,1154.844 C968.902,1141.481 972.376,1126.979 972.376,1111.354 C972.376,1097.121 970.033,1084.450 965.345,1073.333 C960.658,1062.225 953.537,1052.419 943.991,1043.906 C934.437,1035.402 922.116,1028.110 907.012,1022.031 C891.908,1015.960 873.939,1010.662 853.106,1006.146 C834.006,1001.979 818.031,998.333 805.189,995.208 C792.339,992.083 782.012,988.698 774.199,985.052 C766.387,981.406 760.829,977.069 757.533,972.031 C754.229,967.002 752.585,960.492 752.585,952.500 C752.585,945.908 754.318,940.000 757.793,934.792 C761.260,929.583 766.037,925.156 772.116,921.510 C778.187,917.865 785.308,915.089 793.470,913.177 C801.624,911.273 810.218,910.312 819.251,910.312 C840.085,910.312 855.791,913.527 866.387,919.948 C876.974,926.377 884.876,933.929 890.085,942.604 C892.510,946.429 895.204,949.465 898.158,951.719 C901.104,953.981 905.531,955.104 911.439,955.104 L947.897,955.104 C951.714,955.104 955.099,953.802 958.053,951.198 C960.999,948.594 962.302,945.208 961.960,941.042 C961.260,930.975 957.874,920.298 951.804,909.010 C945.724,897.731 936.781,887.396 924.981,878.021 C913.172,868.646 898.418,860.833 880.710,854.583 C863.001,848.333 842.510,845.208 819.251,845.208 C799.802,845.208 781.662,847.902 764.824,853.281 Z"
        />
        <path 
            fill="#c8c8c8"
            d="M372.731,850.417 C368.906,850.417 365.610,851.808 362.835,854.583 C360.052,857.367 358.668,860.662 358.668,864.479 L358.668,1200.937 C358.668,1204.762 360.052,1208.058 362.835,1210.833 C365.610,1213.617 368.906,1215.000 372.731,1215.000 L503.981,1215.000 C528.981,1215.000 550.766,1211.615 569.345,1204.844 C587.916,1198.073 603.460,1188.437 615.960,1175.937 C628.460,1163.437 638.095,1148.333 644.866,1130.625 C651.637,1112.917 655.714,1093.125 657.106,1071.250 C658.489,1045.558 658.489,1019.866 657.106,994.167 C655.714,972.292 651.637,952.500 644.866,934.792 C638.095,917.083 628.370,901.979 615.699,889.479 C603.020,876.979 587.224,867.344 568.304,860.573 C549.375,853.802 527.068,850.417 501.377,850.417 L372.731,850.417 ZM586.793,1071.250 C586.093,1082.367 583.929,1092.783 580.283,1102.500 C576.637,1112.225 571.339,1120.558 564.397,1127.500 C557.447,1134.450 548.772,1139.919 538.356,1143.906 C527.939,1147.902 515.610,1149.896 501.377,1149.896 L428.981,1149.896 L428.981,915.521 L498.772,915.521 C513.697,915.521 526.547,917.523 537.314,921.510 C548.072,925.506 557.016,931.064 564.137,938.177 C571.250,945.298 576.637,953.631 580.283,963.177 C583.929,972.731 586.093,983.058 586.793,994.167 C588.177,1019.866 588.177,1045.558 586.793,1071.250 L586.793,1071.250 Z"
        />
        <path 
            fill="#c8c8c8"
            d="M138.638,1149.896 L138.638,1063.437 L295.409,1063.437 C299.226,1063.437 302.522,1062.054 305.305,1059.271 C308.080,1056.496 309.472,1053.200 309.472,1049.375 L309.472,1012.396 C309.472,1008.579 308.080,1005.283 305.305,1002.500 C302.522,999.725 299.226,998.333 295.409,998.333 L138.638,998.333 L138.638,915.521 L306.868,915.521 C310.684,915.521 313.980,914.137 316.763,911.354 C319.538,908.579 320.930,905.283 320.930,901.458 L320.930,864.479 C320.930,860.662 319.538,857.367 316.763,854.583 C313.980,851.808 310.684,850.417 306.868,850.417 L82.388,850.417 C78.564,850.417 75.268,851.808 72.493,854.583 C69.709,857.367 68.326,860.662 68.326,864.479 L68.326,1200.937 C68.326,1204.762 69.709,1208.058 72.493,1210.833 C75.268,1213.617 78.564,1215.000 82.388,1215.000 L311.034,1215.000 C314.851,1215.000 318.147,1213.617 320.930,1210.833 C323.705,1208.058 325.097,1204.762 325.097,1200.937 L325.097,1163.958 C325.097,1160.142 323.705,1156.846 320.930,1154.062 C318.147,1151.287 314.851,1149.896 311.034,1149.896 L138.638,1149.896 Z"
        />
    </g>
</svg>